<svg width="300" height="294" viewBox="0 0 300 294" fill="none" xmlns="http://www.w3.org/2000/svg">
<path fill-rule="evenodd" clip-rule="evenodd" d="M173.681 77.7262C166.659 77.7262 160.152 74.0437 156.536 68.0242L155.369 66.0804C148.49 54.6279 137.097 46.5386 123.834 44.8498C112.996 43.4697 99.123 42.1733 85.25 42.1733C75.5683 42.1733 65.8867 42.8047 57.2367 43.6553C38.1714 45.53 23.7901 60.3788 22.3249 79.4597C21.0838 95.6222 20 118.438 20 148.832C20 170.407 20.7864 189.626 21.7866 205.343C23.459 231.626 43.9186 251.858 70.2385 253.374C90.2283 254.525 116.982 255.491 150.5 255.491C184.018 255.491 210.772 254.525 230.761 253.374C257.081 251.858 277.541 231.626 279.213 205.343C280.214 189.626 281 170.407 281 148.832C281 136.493 280.286 124.869 279.353 114.948C277.561 95.8952 262.812 81.1618 243.738 79.3718C233.807 78.4398 222.17 77.7262 209.818 77.7262H173.681Z" fill="#F0B5AB" stroke="#1C2636" stroke-width="2" stroke-linecap="round" stroke-linejoin="round"/>
<line x1="64.3426" y1="80.7566" x2="47.0002" y2="63.4142" stroke="#1C2636" stroke-width="2" stroke-linecap="round"/>
<line x1="79.1712" y1="80.7566" x2="61.8288" y2="63.4142" stroke="#1C2636" stroke-width="2" stroke-linecap="round"/>
<line x1="94.0008" y1="80.7566" x2="76.6584" y2="63.4142" stroke="#1C2636" stroke-width="2" stroke-linecap="round"/>
<line x1="230.076" y1="199.07" x2="251" y2="199.07" stroke="#1C2636" stroke-width="2" stroke-linecap="round"/>
<line x1="230.076" y1="211.574" x2="246.311" y2="211.574" stroke="#1C2636" stroke-width="2" stroke-linecap="round"/>
<line x1="230.076" y1="224.078" x2="246.311" y2="224.078" stroke="#1C2636" stroke-width="2" stroke-linecap="round"/>
<path fill-rule="evenodd" clip-rule="evenodd" d="M164.421 177.553C173.746 172.216 180.02 162.241 180.02 150.815C180.02 133.768 166.052 119.948 148.822 119.948C131.592 119.948 117.625 133.768 117.625 150.815C117.625 162.241 123.898 172.216 133.223 177.553V197.116C133.223 205.64 140.207 212.55 148.822 212.55C157.437 212.55 164.421 205.64 164.421 197.116V177.553Z" fill="#B995B7" stroke="#1C2636" stroke-width="2" stroke-linecap="round" stroke-linejoin="round"/>
</svg>
